<svg xmlns="http://www.w3.org/2000/svg" viewBox="0 0 448.49 382.77"><defs><style>.cls-1{fill:#507655;}</style></defs><title>Asset 1</title><g id="Layer_2" data-name="Layer 2"><g id="Layer_1-2" data-name="Layer 1"><path class="cls-1" d="M210,324.62c-16.63,18.17-31.71,36.52-49,52.46-5.59,5.15-17,4-25.76,5.68,1.31-8.79-.57-20.91,4.5-25.78,17.65-16.93,37.71-31.35,52.73-43.42-12.69-35.77-24.39-47.25-55.36-44C68.25,276.78,5.05,218.24,1.16,148.5-.87,112.19.28,75.68.75,39.27,1.05,15.15,15.12,1.79,38.31,1,72.86-.14,107.58-.71,142,1.53c41.21,2.67,75.14,21.73,98.53,56.16C249,70.07,256.5,72,271.46,70.83c46.14-3.52,92.57-4.29,138.88-4.06,20.69.11,35.45,14.63,36.11,34.55,1.47,44.47,4.69,89.89-2.24,133.42-16.7,105-125.37,153.38-216.86,100Zm20.66-25.29c41.51,27.92,76.51,33.43,113.75,18.26,42.54-17.32,67.25-49.85,70.74-95.42,2.63-34.39.28-69.13,1-103.7.31-14.9-4.67-21.57-20.33-21.21-33.66.76-67.48-1.51-101,1-44.58,3.29-76.58,27.42-94.05,68.59-16.38,38.59-12.37,75.5,14.13,114.28,24.33-25.23,45.53-48.8,68.67-70.27,7-6.46,19.34-7.1,29.23-10.4-2.72,10.72-2.11,24.63-8.76,31.56C282.2,254.73,257.68,275,230.67,299.33ZM166,153.49l54.93-65.2c-14.89-32.8-44.69-54-82.28-55.68-29-1.27-58.18.28-87.23-.66-16-.52-20.5,6.42-20.15,21.12.72,30-.61,60,.73,90,2.14,47.89,36.3,86.06,83.1,94.92,39.59,7.5,55.24-8.49,44.8-47-2-7.26-8.52-13.66-14-19.51-11.75-12.64-25.58-23.62-35.76-37.35-5.87-7.93-6.29-19.9-9.16-30.05,9.94,2.56,22.39,2.26,29.3,8.29C143.74,124,154.07,139.28,166,153.49Z"/></g></g></svg>